<svg width="20" height="12" viewBox="0 0 20 12" fill="none" xmlns="http://www.w3.org/2000/svg">
<path fill-rule="evenodd" clip-rule="evenodd" d="M9.24213 11.1851C9.51566 11.4596 9.88661 11.6138 10.2734 11.6138C10.6602 11.6138 11.0311 11.4596 11.3046 11.1851L19.5562 2.9034C19.6955 2.76836 19.8066 2.60682 19.883 2.4282C19.9595 2.24959 19.9997 2.05749 20.0014 1.8631C20.0031 1.66872 19.9662 1.47594 19.8928 1.29602C19.8195 1.11611 19.7112 0.952648 19.5742 0.815191C19.4373 0.677734 19.2744 0.56903 19.0952 0.49542C18.9159 0.421809 18.7238 0.384768 18.5302 0.386457C18.3365 0.388146 18.1451 0.428532 17.9671 0.505258C17.7892 0.581983 17.6282 0.693512 17.4936 0.833337L10.2734 8.08004L3.05312 0.833338C2.77802 0.566662 2.40957 0.419102 2.02712 0.422437C1.64467 0.425773 1.27882 0.579738 1.00838 0.851172C0.737936 1.12261 0.584529 1.48979 0.581207 1.87364C0.577882 2.25749 0.724907 2.6273 0.990608 2.90341L9.24213 11.1851Z" fill="white"/>
</svg>
