<svg width="36" height="36" viewBox="0 0 36 36" fill="none" xmlns="http://www.w3.org/2000/svg">
<path d="M18 35.9266C12.9667 35.9266 8.70867 34.1846 5.226 30.7006C1.74333 27.2166 0.00133333 22.9586 0 17.9266C0 13.3266 1.5 9.3346 4.5 5.9506C7.5 2.5666 11.3333 0.591929 16 0.0265957C16.4333 -0.0400709 16.8167 0.0185958 17.15 0.202596C17.4833 0.386596 17.75 0.627929 17.95 0.926596C18.15 1.22526 18.2587 1.57526 18.276 1.9766C18.2933 2.37793 18.168 2.76126 17.9 3.1266C17.3333 3.99326 16.908 4.90993 16.624 5.8766C16.34 6.84326 16.1987 7.85993 16.2 8.9266C16.2 11.9266 17.25 14.4766 19.35 16.5766C21.45 18.6766 24 19.7266 27 19.7266C28.0333 19.7266 29.0587 19.5766 30.076 19.2766C31.0933 18.9766 32.0013 18.5599 32.8 18.0266C33.1667 17.7933 33.542 17.6853 33.926 17.7026C34.31 17.7199 34.6513 17.8113 34.95 17.9766C35.2833 18.1433 35.542 18.3933 35.726 18.7266C35.91 19.0599 35.968 19.4599 35.9 19.9266C35.4333 24.5266 33.4753 28.3433 30.026 31.3766C26.5767 34.4099 22.568 35.9266 18 35.9266ZM18 31.9266C20.9333 31.9266 23.5667 31.1179 25.9 29.5006C28.2333 27.8833 29.9333 25.7753 31 23.1766C30.3333 23.3433 29.6667 23.4766 29 23.5766C28.3333 23.6766 27.6667 23.7266 27 23.7266C22.9 23.7266 19.408 22.2846 16.524 19.4006C13.64 16.5166 12.1987 13.0253 12.2 8.9266C12.2 8.25993 12.25 7.59326 12.35 6.9266C12.45 6.25993 12.5833 5.59326 12.75 4.9266C10.15 5.99326 8.04133 7.69326 6.424 10.0266C4.80667 12.3599 3.99867 14.9933 4 17.9266C4 21.7933 5.36667 25.0933 8.1 27.8266C10.8333 30.5599 14.1333 31.9266 18 31.9266Z" fill="white"/>
</svg>
