<svg width="36" height="36" viewBox="0 0 44 44" fill="none" xmlns="http://www.w3.org/2000/svg">
<path d="M22.0444 44C15.8801 44 10.6654 41.8665 6.40022 37.5996C2.13504 33.3327 0.00163292 28.1178 0 21.955C0 16.3213 1.83703 11.4323 5.5111 7.28781C9.18516 3.14336 13.8798 0.724947 19.595 0.0325723C20.1257 -0.0490757 20.5952 0.0227747 21.0034 0.248123C21.4116 0.473471 21.7382 0.769037 21.9831 1.13482C22.2281 1.5006 22.3612 1.92925 22.3824 2.42078C22.4036 2.9123 22.2501 3.38177 21.9219 3.8292C21.2279 4.89063 20.707 6.01329 20.3592 7.19718C20.0114 8.38108 19.8383 9.62621 19.8399 10.9326C19.8399 14.6067 21.1259 17.7298 23.6977 20.3017C26.2696 22.8736 29.3925 24.1595 33.0666 24.1595C34.3321 24.1595 35.5878 23.9758 36.8337 23.6084C38.0796 23.241 39.1916 22.7307 40.1698 22.0775C40.6188 21.7918 41.0785 21.6595 41.5488 21.6807C42.019 21.7019 42.4371 21.8138 42.8028 22.0163C43.2111 22.2204 43.5279 22.5266 43.7532 22.9348C43.9785 23.3431 44.0496 23.833 43.9663 24.4045C43.3948 30.0382 40.9968 34.7125 36.7725 38.4275C32.5481 42.1425 27.6388 44 22.0444 44ZM22.0444 39.1011C25.6368 39.1011 28.8618 38.1107 31.7194 36.13C34.577 34.1492 36.659 31.5675 37.9653 28.3848C37.1489 28.5889 36.3324 28.7522 35.5159 28.8747C34.6995 28.9972 33.883 29.0584 33.0666 29.0584C28.0454 29.0584 23.7687 27.2924 20.2367 23.7603C16.7047 20.2282 14.9396 15.9523 14.9412 10.9326C14.9412 10.1161 15.0024 9.29962 15.1249 8.48314C15.2474 7.66666 15.4107 6.85018 15.6148 6.0337C12.4306 7.34007 9.84812 9.42209 7.86739 12.2798C5.88667 15.1374 4.89712 18.3625 4.89875 21.955C4.89875 26.6906 6.57249 30.7322 9.91997 34.0798C13.2675 37.4273 17.3089 39.1011 22.0444 39.1011Z" fill="#292929"/>
</svg>
