<svg width="35" height="60" viewBox="0 0 35 60" fill="none" xmlns="http://www.w3.org/2000/svg">
<path d="M4.16504 21.0015H4.16992C4.83579 21.0015 5.44988 21.2314 5.93262 21.6167L6.5459 22.1069L7.16699 21.6274C7.69199 21.2221 8.33671 21.0016 9 21.0015C9.69137 21.0015 10.3251 21.2334 10.8311 21.6255L11.4541 22.1089L12.0693 21.6157C12.568 21.2164 13.1883 20.9997 13.8271 21.0015H13.8301C15.2761 21.0015 16.4928 22.0917 16.6172 23.5396H16.6182C16.7856 25.4829 17 28.464 17 31.0015C17.0002 32.38 16.6445 33.7356 15.9668 34.936C15.2891 36.1364 14.3122 37.1411 13.1318 37.853H13.1309C12.4958 38.2364 12.1089 38.8321 12.0996 39.4312L12.1025 39.5513C12.3587 43.4528 13 53.4294 13 54.9956C13 56.0564 12.5782 57.0736 11.8281 57.8237C11.078 58.5738 10.0608 58.9956 9 58.9956C7.93916 58.9956 6.92202 58.5738 6.17188 57.8237C5.42175 57.0736 5.00003 56.0564 5 54.9956C5 53.4288 5.64144 43.4461 5.89746 39.5474L5.89844 39.5386C5.93432 38.9118 5.55268 38.2657 4.86914 37.853H4.86816C3.68779 37.1411 2.71093 36.1364 2.0332 34.936C1.35545 33.7356 0.999829 32.38 1 31.0015C1 28.4664 1.21443 25.4839 1.38184 23.5405C1.44238 22.8453 1.76281 22.1983 2.27832 21.728C2.79385 21.2577 3.46723 20.9981 4.16504 21.0015ZM13.8125 22.0015C13.3941 22.0055 12.9911 22.1524 12.6699 22.4155L12.5361 22.5376C12.1929 22.8808 12 23.3462 12 23.8315V30.5015C12 30.6341 11.9473 30.7612 11.8535 30.855C11.7597 30.9487 11.6326 31.0015 11.5 31.0015C11.3674 31.0015 11.2403 30.9487 11.1465 30.855C11.0527 30.7612 11 30.6341 11 30.5015V24.0015C11 23.471 10.7891 22.9625 10.4141 22.5874C10.039 22.2123 9.53042 22.0015 9 22.0015C8.46958 22.0015 7.96101 22.2123 7.58594 22.5874C7.21088 22.9625 7.00001 23.471 7 24.0015V30.5015C7 30.6341 6.94727 30.7612 6.85352 30.855C6.75975 30.9487 6.63261 31.0015 6.5 31.0015C6.36739 31.0015 6.24025 30.9487 6.14648 30.855C6.05273 30.7612 6 30.6341 6 30.5015V23.8315C6 23.4069 5.85277 22.997 5.58594 22.6714L5.46387 22.5376L5.33008 22.4155C5.00867 22.1522 4.60528 22.0052 4.18652 22.0015C3.79379 21.9948 3.41153 22.1181 3.09766 22.3491L2.96777 22.4546C2.63262 22.7535 2.42232 23.1678 2.37891 23.6147L2.37793 23.6255C2.21136 25.5622 2 28.5071 2 31.0015C2 33.5447 3.35488 35.7695 5.38574 36.9956V36.9966C6.26563 37.5294 6.96861 38.4807 6.89648 39.6118C6.63851 43.541 6 53.4703 6 54.9976C6.00001 55.7932 6.31631 56.5561 6.87891 57.1187C7.44151 57.6812 8.20436 57.9976 9 57.9976C9.79564 57.9976 10.5585 57.6812 11.1211 57.1187C11.6837 56.5561 12 55.7932 12 54.9976C12 53.4703 11.3615 43.541 11.1035 39.6118C11.0315 38.4816 11.7325 37.5306 12.6113 36.9976L12.6123 36.9985C13.646 36.3758 14.5011 35.4955 15.0947 34.4448C15.6882 33.3942 16.0001 32.2081 16 31.0015L15.9902 30.0483C15.9475 27.7882 15.7678 25.3201 15.6221 23.6255L15.6211 23.6147C15.5831 23.2236 15.4177 22.8574 15.1523 22.5718L15.0322 22.4546L14.9023 22.3491C14.5882 22.1179 14.2055 21.9946 13.8125 22.0015Z" fill="#FEB704" stroke="white" stroke-width="2"/>
<path d="M32.5 21C32.6326 21 32.7597 21.0527 32.8535 21.1465C32.9473 21.2403 33 21.3674 33 21.5V38.5C33 39.1809 33.2164 42.391 33.4521 45.8516L33.4619 46.0098V46.0176C33.724 49.8637 34 53.9608 34 54.9941C34 56.055 33.5782 57.0722 32.8281 57.8223C32.078 58.5724 31.0608 58.9941 30 58.9941C28.9392 58.9941 27.922 58.5724 27.1719 57.8223C26.4218 57.0722 26 56.055 26 54.9941C26 54.008 26.2523 49.8611 26.502 45.9902V45.9893C26.6258 44.0493 26.7517 42.1691 26.8457 40.7734V40.7715L26.8916 40.0654L26.9609 39H24.5C24.1717 39 23.8463 38.9352 23.543 38.8096C23.2398 38.6839 22.9645 38.4996 22.7324 38.2676C22.5004 38.0355 22.3161 37.7602 22.1904 37.457C22.0648 37.1537 22 36.8283 22 36.5V31.5C22 28.7152 23.1061 26.0443 25.0752 24.0752C27.0443 22.1061 29.7152 21 32.5 21ZM30.8232 22.1475C28.6293 22.5409 26.6431 23.6936 25.2129 25.4033C23.7829 27.113 22.9997 29.2711 23 31.5V36.5C23 37.3283 23.6717 38 24.5 38H27.5C27.5685 38.0001 27.6364 38.0137 27.6992 38.041C27.7621 38.0684 27.8185 38.109 27.8652 38.1592C27.9119 38.2093 27.9478 38.2684 27.9707 38.333C27.9936 38.3976 28.0028 38.4667 27.998 38.5352V38.5371L27.9561 39.1631C27.7983 41.4601 27.6458 43.7579 27.498 46.0557C27.2477 49.9506 27 54.0503 27 54.9941C27 55.7897 27.3163 56.5527 27.8789 57.1152C28.4415 57.6778 29.2044 57.9941 30 57.9941C30.7956 57.9941 31.5585 57.6778 32.1211 57.1152C32.6837 56.5527 33 55.7897 33 54.9941C33 54.4918 32.9295 53.2037 32.8262 51.5508L32.4541 45.918L32.4395 45.7109V45.71C32.2113 42.3604 32 39.2092 32 38.5V21.9365L30.8232 22.1475Z" fill="#F97A0D" stroke="white" stroke-width="2"/>
<circle cx="17" cy="7" r="5.5" stroke="white" stroke-width="3"/>
</svg>
