<svg width="35" height="60" viewBox="0 0 35 60" fill="none" xmlns="http://www.w3.org/2000/svg">
<path d="M4.16504 21.0022H4.16992C4.83579 21.0022 5.44988 21.2321 5.93262 21.6174L6.5459 22.1077L7.16699 21.6282C7.69199 21.2228 8.33671 21.0023 9 21.0022C9.69137 21.0022 10.3251 21.2342 10.8311 21.6262L11.4541 22.1096L12.0693 21.6165C12.568 21.2172 13.1883 21.0004 13.8271 21.0022H13.8301C15.2761 21.0022 16.4928 22.0925 16.6172 23.5403H16.6182C16.7856 25.4836 17 28.4647 17 31.0022C17.0002 32.3807 16.6445 33.7363 15.9668 34.9368C15.2891 36.1371 14.3122 37.1418 13.1318 37.8538H13.1309C12.4958 38.2371 12.1089 38.8328 12.0996 39.4319L12.1025 39.552C12.3587 43.4535 13 53.4301 13 54.9963C13 56.0572 12.5782 57.0743 11.8281 57.8245C11.078 58.5746 10.0608 58.9963 9 58.9963C7.93916 58.9963 6.92202 58.5746 6.17188 57.8245C5.42175 57.0743 5.00003 56.0572 5 54.9963C5 53.4296 5.64144 43.4468 5.89746 39.5481L5.89844 39.5393C5.93432 38.9125 5.55268 38.2664 4.86914 37.8538H4.86816C3.68779 37.1418 2.71093 36.1371 2.0332 34.9368C1.35545 33.7363 0.999829 32.3807 1 31.0022C1 28.4671 1.21443 25.4846 1.38184 23.5413C1.44238 22.8461 1.76281 22.1991 2.27832 21.7288C2.79385 21.2585 3.46723 20.9989 4.16504 21.0022ZM13.8125 22.0022C13.3941 22.0062 12.9911 22.1531 12.6699 22.4163L12.5361 22.5383C12.1929 22.8815 12 23.3469 12 23.8323V30.5022C12 30.6348 11.9473 30.7619 11.8535 30.8557C11.7597 30.9495 11.6326 31.0022 11.5 31.0022C11.3674 31.0022 11.2403 30.9495 11.1465 30.8557C11.0527 30.7619 11 30.6348 11 30.5022V24.0022C11 23.4718 10.7891 22.9632 10.4141 22.5881C10.039 22.2131 9.53042 22.0022 9 22.0022C8.46958 22.0022 7.96101 22.2131 7.58594 22.5881C7.21088 22.9632 7.00001 23.4718 7 24.0022V30.5022C7 30.6348 6.94727 30.7619 6.85352 30.8557C6.75975 30.9495 6.63261 31.0022 6.5 31.0022C6.36739 31.0022 6.24025 30.9495 6.14648 30.8557C6.05273 30.7619 6 30.6348 6 30.5022V23.8323C6 23.4076 5.85277 22.9978 5.58594 22.6721L5.46387 22.5383L5.33008 22.4163C5.00867 22.1529 4.60528 22.006 4.18652 22.0022C3.79379 21.9956 3.41153 22.1188 3.09766 22.3499L2.96777 22.4553C2.63262 22.7543 2.42232 23.1685 2.37891 23.6155L2.37793 23.6262C2.21136 25.5629 2 28.5079 2 31.0022C2 33.5454 3.35488 35.7703 5.38574 36.9963V36.9973C6.26563 37.5301 6.96861 38.4814 6.89648 39.6125C6.63851 43.5417 6 53.4711 6 54.9983C6.00001 55.7939 6.31631 56.5568 6.87891 57.1194C7.44151 57.682 8.20436 57.9983 9 57.9983C9.79564 57.9983 10.5585 57.682 11.1211 57.1194C11.6837 56.5568 12 55.7939 12 54.9983C12 53.4711 11.3615 43.5417 11.1035 39.6125C11.0315 38.4824 11.7325 37.5313 12.6113 36.9983L12.6123 36.9993C13.646 36.3766 14.5011 35.4963 15.0947 34.4456C15.6882 33.395 16.0001 32.2088 16 31.0022L15.9902 30.0491C15.9475 27.789 15.7678 25.3208 15.6221 23.6262L15.6211 23.6155C15.5831 23.2243 15.4177 22.8582 15.1523 22.5725L15.0322 22.4553L14.9023 22.3499C14.5882 22.1186 14.2055 21.9954 13.8125 22.0022Z" fill="#FEB704" stroke="#121212" stroke-width="2"/>
<path d="M32.5 21.0007C32.6326 21.0007 32.7597 21.0535 32.8535 21.1472C32.9473 21.241 33 21.3681 33 21.5007V38.5007C33 39.1816 33.2164 42.3917 33.4521 45.8523L33.4619 46.0105V46.0183C33.724 49.8644 34 53.9615 34 54.9949C34 56.0557 33.5782 57.0729 32.8281 57.823C32.078 58.5731 31.0608 58.9949 30 58.9949C28.9392 58.9949 27.922 58.5731 27.1719 57.823C26.4218 57.0729 26 56.0557 26 54.9949C26 54.0088 26.2523 49.8619 26.502 45.991V45.99C26.6258 44.0501 26.7517 42.1698 26.8457 40.7742V40.7722L26.8916 40.0662L26.9609 39.0007H24.5C24.1717 39.0007 23.8463 38.9359 23.543 38.8103C23.2398 38.6847 22.9645 38.5004 22.7324 38.2683C22.5004 38.0362 22.3161 37.761 22.1904 37.4578C22.0648 37.1545 22 36.829 22 36.5007V31.5007C22 28.716 23.1061 26.0451 25.0752 24.0759C27.0443 22.1068 29.7152 21.0007 32.5 21.0007ZM30.8232 22.1482C28.6293 22.5416 26.6431 23.6944 25.2129 25.4041C23.7829 27.1137 22.9997 29.2719 23 31.5007V36.5007C23 37.329 23.6717 38.0007 24.5 38.0007H27.5C27.5685 38.0008 27.6364 38.0144 27.6992 38.0417C27.7621 38.0691 27.8185 38.1098 27.8652 38.1599C27.9119 38.21 27.9478 38.2692 27.9707 38.3337C27.9936 38.3984 28.0028 38.4675 27.998 38.5359V38.5378L27.9561 39.1638C27.7983 41.4609 27.6458 43.7587 27.498 46.0564C27.2477 49.9513 27 54.0511 27 54.9949C27 55.7905 27.3163 56.5534 27.8789 57.116C28.4415 57.6785 29.2044 57.9949 30 57.9949C30.7956 57.9949 31.5585 57.6785 32.1211 57.116C32.6837 56.5534 33 55.7905 33 54.9949C33 54.4925 32.9295 53.2045 32.8262 51.5515L32.4541 45.9187L32.4395 45.7117V45.7107C32.2113 42.3611 32 39.2099 32 38.5007V21.9373L30.8232 22.1482Z" fill="#F97A0D" stroke="#121212" stroke-width="2"/>
<circle cx="17" cy="7.00073" r="5.5" stroke="#121212" stroke-width="3"/>
</svg>
