<svg width="63" height="63" viewBox="0 0 63 63" fill="none" xmlns="http://www.w3.org/2000/svg">
<path fill-rule="evenodd" clip-rule="evenodd" d="M31.5 63C35.6366 63 39.7328 62.1852 43.5545 60.6022C47.3763 59.0192 50.8488 56.6989 53.7739 53.7739C56.6989 50.8488 59.0192 47.3763 60.6022 43.5545C62.1852 39.7328 63 35.6366 63 31.5C63 27.3634 62.1852 23.2672 60.6022 19.4455C59.0192 15.6237 56.6989 12.1512 53.7739 9.22614C50.8488 6.30109 47.3763 3.98082 43.5545 2.39779C39.7328 0.814771 35.6366 -6.16407e-08 31.5 0C23.1457 1.24489e-07 15.1335 3.31874 9.22614 9.22614C3.31874 15.1335 0 23.1457 0 31.5C0 39.8543 3.31874 47.8665 9.22614 53.7739C15.1335 59.6813 23.1457 63 31.5 63ZM30.688 44.24L48.188 23.24L42.812 18.76L27.762 36.8165L19.9745 29.0255L15.0255 33.9745L25.5255 44.4745L28.2345 47.1835L30.688 44.24Z" fill="#2BD800"/>
</svg>
